<?xml version="1.0" encoding="utf-8"?>
<!-- Generator: Adobe Illustrator 26.0.0, SVG Export Plug-In . SVG Version: 6.00 Build 0)  -->
<svg version="1.1" id="Layer_1" xmlns="http://www.w3.org/2000/svg" xmlns:xlink="http://www.w3.org/1999/xlink" x="0px" y="0px"
	 viewBox="0 0 288 216" style="enable-background:new 0 0 288 216;" xml:space="preserve">
<style type="text/css">
	.st0{fill:#9CA9B0;stroke:#000000;stroke-width:5.0266;stroke-miterlimit:10;}
	.st1{fill:#8B5E3C;stroke:#000000;stroke-width:5.0266;stroke-miterlimit:10;}
	.st2{fill:#C49A6C;}
	.st3{fill:none;stroke:#000000;stroke-width:2.3055;stroke-miterlimit:10;}
	.st4{fill:none;stroke:#000000;stroke-width:2.484;stroke-miterlimit:10;}
	.st5{fill:#EDAD58;stroke:#000000;stroke-width:3;stroke-miterlimit:10;}
	.st6{fill:#C49A6C;stroke:#000000;stroke-width:3.77;stroke-miterlimit:10;}
	.st7{stroke:#000000;stroke-width:1.7773;stroke-linecap:round;stroke-linejoin:round;stroke-miterlimit:10;}
	.st8{fill:#FFFFFF;}
	.st9{stroke:#000000;stroke-width:1.601;stroke-miterlimit:10;}
	.st10{fill:none;stroke:#000000;stroke-width:1.7773;stroke-linecap:round;stroke-miterlimit:10;}
	.st11{fill:#FBD3E0;}
	.st12{fill:none;stroke:#000000;stroke-width:1.7075;stroke-miterlimit:10;}
	.st13{fill:none;stroke:#000000;stroke-width:1.7773;stroke-linecap:round;stroke-linejoin:round;stroke-miterlimit:10;}
	.st14{fill:none;stroke:#000000;stroke-width:2.3055;stroke-linecap:round;stroke-linejoin:round;stroke-miterlimit:10;}
	.st15{fill:none;stroke:#000000;stroke-width:1.9309;stroke-linecap:round;stroke-linejoin:round;stroke-miterlimit:10;}
	.st16{fill:none;stroke:#000000;stroke-width:1.8965;stroke-linecap:round;stroke-linejoin:round;stroke-miterlimit:10;}
</style>
<g>
	<path d="M89.21,76.22c-2.66-0.87-2.84-4.53-0.3-5.69c6.9-3.13,15.97-9.34,18.89-20.95c0.22-0.89,1.49-0.89,1.69,0
		c1.71,7.39,2.16,20.02-12.38,28.2c-0.73,0.41-1.61,0.48-2.41,0.22L89.21,76.22z"/>
	<g>
		<path class="st0" d="M262.59,112.6c1.96-9.99-6.03-19.41-17.67-20.82L56.68,68.94c-13.76-1.67-25.52,8.51-23.56,20.37l13.63,82.27
			h204.3L262.59,112.6z"/>
		<path class="st1" d="M70.67,198.69l160.49-8.88c9.66-0.53,17.62-6.73,19.24-14.96l0.64-3.27l-205.18-5.35l2.82,17.05
			C50.22,192.58,59.8,199.29,70.67,198.69z"/>
	</g>
	<g>
		<path class="st2" d="M96.45,87.04C96.45,87.04,96.45,87.04,96.45,87.04c-4.46,1.39-9.25-1.15-10.27-5.08
			c-0.24-0.9-0.48-1.8-0.71-2.7c-0.93-3.9,1.49-8.09,5.34-9.32c0,0,0,0,0,0c3.93-1.22,8.03,0.97,9.46,4.88
			c0.33,0.89,0.67,1.78,1.03,2.67C102.93,81.36,100.89,85.63,96.45,87.04z"/>
		<path class="st3" d="M96.45,87.04C96.45,87.04,96.45,87.04,96.45,87.04c-4.46,1.39-9.25-1.15-10.27-5.08
			c-0.24-0.9-0.48-1.8-0.71-2.7c-0.93-3.9,1.49-8.09,5.34-9.32c0,0,0,0,0,0c3.93-1.22,8.03,0.97,9.46,4.88
			c0.33,0.89,0.67,1.78,1.03,2.67C102.93,81.36,100.89,85.63,96.45,87.04z"/>
	</g>
	<g>
		<path class="st2" d="M46.19,91.35C46.19,91.35,46.19,91.35,46.19,91.35c-4.67-0.95-7.36-5.04-6.11-8.99
			c0.55-1.84,1.06-3.68,1.52-5.53c1.01-4.01,4.86-6.65,8.9-5.85c0,0,0,0,0,0c3.98,0.8,6.7,4.73,6.22,8.74
			c-0.26,1.85-0.52,3.7-0.79,5.56C55.37,89.3,50.88,92.26,46.19,91.35z"/>
		<path class="st4" d="M46.19,91.35C46.19,91.35,46.19,91.35,46.19,91.35c-4.67-0.95-7.36-5.04-6.11-8.99
			c0.55-1.84,1.06-3.68,1.52-5.53c1.01-4.01,4.86-6.65,8.9-5.85c0,0,0,0,0,0c3.98,0.8,6.7,4.73,6.22,8.74
			c-0.26,1.85-0.52,3.7-0.79,5.56C55.37,89.3,50.88,92.26,46.19,91.35z"/>
	</g>
	<g>
		<path class="st5" d="M67.97,97.9L46.22,73.33c-1.1-1.24-0.38-3.22,1.26-3.46l44.44-6.62c1.64-0.24,2.91,1.43,2.21,2.94
			L80.49,96.03C78.22,101,71.59,101.99,67.97,97.9z"/>
		<g>
			<path class="st6" d="M60.71,20.5c1.38,0.13,2.77-0.08,4.05-0.6c2.58-1.05,7.72-2.13,14.9,1c0,0,18.58,7.15,16.98,28.39
				c-1,13.32-8.8,18.76-25.31,28.39c-18.52-4.41-25.8-5.13-32.45-17.68c-5.97-11.26-1.07-23.84,4.12-31.47
				C42.99,28.52,51.91,19.64,60.71,20.5z"/>
			<path class="st7" d="M99.53,36.6c-4.42-0.78-17.82-4.3-20.71-18.7c-0.24-1.19,0.66-2.31,1.87-2.35
				c5.29-0.18,18.12-1.22,20.42,2.31c2.54,3.9,2.5,12.99,0.58,17.55C101.34,36.26,100.45,36.76,99.53,36.6z"/>
			<path class="st7" d="M32.43,46.6c4-2.03,15.79-9.31,14.36-23.93c-0.12-1.21-1.31-2.02-2.48-1.7c-5.11,1.37-17.69,4.12-18.86,8.16
				c-1.3,4.48,1.39,13.15,4.56,16.96C30.6,46.8,31.6,47.02,32.43,46.6z"/>
		</g>
		<g>
			<g>
				<circle cx="51.44" cy="37.58" r="3.92"/>
				<circle class="st8" cx="52.32" cy="36.4" r="1.05"/>
			</g>
			<g>
				<circle cx="78.72" cy="33.52" r="3.92"/>
				<circle class="st8" cx="79.6" cy="32.33" r="1.05"/>
			</g>
		</g>
		<g>
			<path class="st9" d="M69.18,44.42c-1.26,1.04-3.15,1.33-4.67,0.71c-2.2-0.9-5.06-2.28-5.22-3.4v0c-0.27-1.83,1.35-3.61,3.61-3.94
				l5.62-0.84c2.26-0.34,4.33,0.89,4.6,2.72v0C73.29,40.78,71,42.92,69.18,44.42z"/>
			<path class="st10" d="M50.01,51.64c0,0,1.95,13.99,17.59,0.9l-1.03-6.88"/>
			<path class="st10" d="M84.18,46.55c0,0,2.21,13.95-16.57,5.99l-1.03-6.88"/>
			<path d="M55.99,58.11c0,0,4.23,2.29,4.64,6.22c-0.14,0.22,18.16-2.71,18.16-2.71s-0.28-5.61,3.37-8.01c0,0-4.51,5.2-14.55-1.08
				C67.61,52.53,62.2,58.05,55.99,58.11z"/>
			<g>
				<path class="st11" d="M72.67,81.72C72.67,81.72,72.67,81.72,72.67,81.72c-5.76,0.83-10.91-2.9-11.16-7.43
					c-0.21-3.07-0.37-6.1-0.57-9.13c-0.17-3.5,2.36-6.81,5.85-7.33c1.23-0.18,2.47-0.37,3.7-0.55c3.53-0.52,6.77,1.93,7.52,5.44
					c0.63,3.03,1.44,6.07,2.34,9.08C81.79,76.2,78.39,80.81,72.67,81.72z"/>
				<path class="st12" d="M72.67,81.72C72.67,81.72,72.67,81.72,72.67,81.72c-5.76,0.83-10.91-2.9-11.16-7.43
					c-0.21-3.07-0.37-6.1-0.57-9.13c-0.17-3.5,2.36-6.81,5.85-7.33c1.23-0.18,2.47-0.37,3.7-0.55c3.53-0.52,6.77,1.93,7.52,5.44
					c0.63,3.03,1.44,6.07,2.34,9.08C81.79,76.2,78.39,80.81,72.67,81.72z"/>
			</g>
			<line class="st13" x1="70.32" y1="68.26" x2="68.9" y2="58.71"/>
		</g>
	</g>
	<line class="st14" x1="45.65" y1="86.47" x2="43.79" y2="90.17"/>
	<line class="st15" x1="48.76" y1="87.05" x2="48.76" y2="91.32"/>
	<line class="st16" x1="94.26" y1="83.28" x2="95.14" y2="86.97"/>
	<line class="st14" x1="99.22" y1="84.89" x2="96.73" y2="81.05"/>
</g>
<g>
	<g>
		<path d="M65.15,118.34c-0.52,0.69-1.17,1.36-1.95,2.03c-0.79,0.67-1.7,1.25-2.72,1.74c-1.03,0.49-2.16,0.81-3.41,0.96
			c-1.66,0.2-3.16,0.13-4.49-0.22c-1.33-0.35-2.5-0.94-3.49-1.76c-1-0.82-1.81-1.86-2.44-3.09c-0.63-1.24-1.06-2.64-1.29-4.21
			c-0.29-2.03-0.16-3.89,0.42-5.58s1.57-3.09,2.99-4.2c1.42-1.11,3.23-1.81,5.45-2.08c1.81-0.22,3.53-0.09,5.14,0.39
			c1.61,0.48,2.94,1.36,3.98,2.61c-0.33,0.39-0.77,0.83-1.31,1.34c-0.54,0.5-1.09,0.98-1.66,1.44c-0.57,0.46-1.06,0.84-1.46,1.15
			c-0.05-0.1-0.17-0.27-0.37-0.51c-0.2-0.24-0.46-0.49-0.79-0.75c-0.33-0.26-0.73-0.47-1.18-0.63c-0.45-0.16-0.96-0.2-1.52-0.14
			c-0.6,0.07-1.1,0.27-1.51,0.59c-0.41,0.32-0.74,0.73-0.97,1.24c-0.24,0.51-0.39,1.08-0.46,1.71c-0.07,0.64-0.06,1.31,0.03,2.01
			c0.09,0.72,0.25,1.39,0.46,2.03c0.21,0.64,0.48,1.19,0.81,1.66c0.33,0.47,0.73,0.81,1.21,1.04c0.47,0.23,1.03,0.3,1.66,0.23
			c0.51-0.06,1.01-0.21,1.48-0.45s0.93-0.53,1.36-0.89c0.43-0.36,0.83-0.76,1.19-1.21c0.51,0.24,1.09,0.56,1.71,0.97
			c0.63,0.41,1.23,0.83,1.8,1.28C64.36,117.5,64.81,117.93,65.15,118.34z"/>
		<path d="M74.81,121.24c-1.43,0.13-2.76,0.07-3.98-0.17c-1.22-0.24-2.22-0.72-3-1.45c-0.79-0.73-1.25-1.75-1.39-3.08
			c-0.14-1.34,0.16-2.46,0.92-3.35c0.76-0.89,1.8-1.58,3.14-2.06c1.33-0.48,2.77-0.8,4.31-0.93c0.55-0.05,1.09-0.06,1.62-0.03
			c0.52,0.03,0.98,0.09,1.39,0.17c0.41,0.08,0.71,0.18,0.91,0.28c-0.03-0.24-0.12-0.5-0.26-0.79c-0.14-0.28-0.32-0.51-0.54-0.68
			c-0.36-0.31-0.81-0.57-1.35-0.76c-0.54-0.19-1.27-0.25-2.17-0.17c-0.89,0.08-1.67,0.34-2.35,0.77c-0.68,0.44-1.18,0.89-1.5,1.37
			c-2.04-0.93-3.06-1.38-5.11-2.29c0.46-0.72,1.14-1.38,2.02-1.97c0.88-0.59,1.9-1.08,3.04-1.47c1.14-0.39,2.36-0.64,3.64-0.75
			c2.16-0.19,3.93-0.04,5.28,0.45c1.35,0.48,2.39,1.26,3.12,2.33c0.33,0.49,0.62,1.04,0.85,1.65c0.24,0.61,0.44,1.31,0.56,2.07
			c0.1,0.58,0.17,1.17,0.24,1.75c0.07,0.57,0.13,1.15,0.18,1.72c0.07,0.83,0.21,1.38,0.41,1.62c0.2,0.25,0.46,0.36,0.77,0.34
			c0.29-0.02,0.55-0.09,0.77-0.21c0.22-0.12,0.37-0.27,0.44-0.46c0.85,1.41,1.27,2.12,2.11,3.53c-0.13,0.37-0.47,0.72-1.03,1.04
			c-0.56,0.32-1.31,0.52-2.25,0.58c-0.67,0.05-1.32-0.01-1.96-0.16c-0.64-0.16-1.18-0.4-1.62-0.72c-0.44-0.32-0.72-0.72-0.83-1.19
			c-0.13,0.43-0.47,0.85-1,1.28c-0.54,0.43-1.25,0.8-2.15,1.11C77.13,120.91,76.06,121.13,74.81,121.24z M75.77,116.98
			c0.49-0.04,0.99-0.15,1.51-0.33c0.51-0.18,0.98-0.38,1.39-0.62c0.42-0.24,0.72-0.45,0.9-0.63c-0.05-0.23-0.1-0.49-0.15-0.78
			c-0.05-0.29-0.07-0.52-0.07-0.71c-0.24-0.07-0.69-0.12-1.33-0.16c-0.65-0.04-1.3-0.03-1.96,0.03c-0.59,0.05-1.15,0.15-1.7,0.3
			c-0.54,0.15-0.98,0.35-1.31,0.61c-0.33,0.25-0.48,0.57-0.44,0.95c0.04,0.39,0.19,0.69,0.45,0.9c0.26,0.21,0.62,0.35,1.09,0.41
			C74.61,117.03,75.15,117.03,75.77,116.98z"/>
		<path d="M90.6,119.92c-0.17-0.16-0.18-1.51-0.3-2.58c-0.11-1.08-0.23-2.25-0.34-3.52c-0.11-1.27-0.22-2.53-0.32-3.79
			c-0.1-1.25-0.19-2.4-0.26-3.44c-0.08-1.04-0.13-1.85-0.17-2.43c0.32-0.1,0.74-0.21,1.28-0.31c0.53-0.1,1.1-0.2,1.71-0.3
			c0.61-0.1,1.18-0.18,1.72-0.25c0.54-0.07,0.98-0.11,1.32-0.13c0.02,0.18,0.04,0.39,0.06,0.63c0.02,0.24,0.04,0.48,0.05,0.71
			c0.02,0.24,0.03,0.46,0.04,0.66s0.02,0.36,0.02,0.48c0.06-0.2,0.21-0.45,0.45-0.76c0.24-0.31,0.58-0.62,1.01-0.94
			c0.43-0.32,0.96-0.59,1.58-0.81c0.62-0.22,1.34-0.35,2.15-0.38c0.79-0.03,1.47,0.07,2.03,0.31s1.04,0.55,1.43,0.95
			c0.39,0.4,0.7,0.83,0.93,1.29c0.11,0.22,0.21,0.44,0.28,0.68s0.13,0.45,0.19,0.66c0.26-0.7,0.7-1.37,1.3-2.02
			c0.61-0.65,1.36-1.19,2.26-1.62c0.9-0.43,1.91-0.66,3.02-0.68c1.49-0.03,2.72,0.18,3.68,0.62c0.96,0.44,1.7,1.11,2.23,2
			c0.53,0.89,0.91,2,1.12,3.33c0.22,1.33,0.33,2.85,0.34,4.58c0,0.63,0,1.28-0.02,1.95c-0.02,0.67-0.04,1.37-0.07,2.07
			s-0.06,1.42-0.09,2.14c-0.48,0.02-0.97,0.05-1.48,0.07c-0.51,0.02-1.01,0.03-1.5,0.04c-0.52,0.01-1.04,0-1.57-0.01
			c-0.52-0.01-1.05-0.04-1.57-0.07c0.19-1.57,0.35-3.03,0.49-4.36c0.13-1.33,0.2-2.5,0.18-3.48c-0.02-1.31-0.2-2.3-0.53-2.99
			s-0.89-1.02-1.67-1c-0.72,0.01-1.31,0.23-1.76,0.64c-0.45,0.41-0.8,0.98-1.04,1.71c-0.24,0.73-0.41,1.58-0.51,2.55
			c-0.1,0.97-0.17,2.03-0.19,3.15c-0.01,0.6-0.01,1.24-0.02,1.9c-0.01,0.66,0.13,1.91,0.01,2.04c-0.05,0.06-0.6,0.04-1.07,0.07
			c-0.47,0.03-0.97,0.05-1.49,0.07c-0.61,0.02-1.2,0.03-1.77,0.04c-0.56,0-1.17,0.03-1.23-0.03c-0.17-0.18-0.08-1.4-0.11-2.02
			c-0.03-0.62-0.06-1.28-0.08-1.96c-0.05-1.2-0.11-2.29-0.2-3.27c-0.09-0.98-0.24-1.82-0.44-2.52c-0.21-0.7-0.49-1.23-0.86-1.59
			c-0.37-0.36-0.86-0.53-1.47-0.51c-0.4,0.02-0.79,0.1-1.17,0.25c-0.37,0.15-0.72,0.35-1.03,0.6c-0.31,0.25-0.58,0.52-0.8,0.83
			c-0.22,0.3-0.43,0.67-0.46,0.94c-0.12,1.38,0.31,3.23,0.46,4.63c0.15,1.4,0.28,2.54,0.38,3.43c0.1,0.88,0.16,1.4,0.18,1.55
			c-0.13,0.02-0.41,0.04-0.86,0.07c-0.45,0.03-0.84,0.06-1.19,0.08c-0.82,0.04-1.65,0.07-2.48,0.09
			C91.57,119.94,90.69,120,90.6,119.92z"/>
		<path d="M121.69,126.05c0.12-1.78,0.23-3.65,0.32-5.6c0.09-1.95,0.17-3.87,0.23-5.77c0.06-1.9,0.11-3.67,0.15-5.32
			c0.04-1.65,0.07-3.07,0.08-4.28c0.02-1.2,0.03-2.08,0.03-2.62c0.82-0.23,1.78-0.4,2.86-0.5c1.08-0.1,2.13-0.14,3.14-0.13
			c0.04,0.36,0.08,0.77,0.1,1.22c0.03,0.45,0.04,0.87,0.03,1.25c0.22-0.25,0.6-0.57,1.14-0.96c0.54-0.38,1.24-0.72,2.09-1.01
			s1.83-0.42,2.93-0.4c2.45,0.05,4.24,0.8,5.33,2.21c1.09,1.41,1.6,3.34,1.51,5.79c-0.06,1.72-0.48,3.19-1.26,4.4
			c-0.78,1.22-1.8,2.14-3.07,2.77c-1.27,0.63-2.68,0.93-4.22,0.9c-0.67-0.01-1.36-0.1-2.04-0.27c-0.69-0.16-1.3-0.37-1.83-0.61
			c-0.53-0.25-0.9-0.49-1.09-0.72c0,0.27-0.02,0.69-0.05,1.28c-0.03,0.59-0.06,1.26-0.1,2c-0.04,0.74-0.08,1.5-0.12,2.26
			c-0.05,0.76-0.09,1.47-0.14,2.11c-0.05,0.64-0.09,1.15-0.14,1.54c-0.69,0.12-1.41,0.21-2.16,0.27c-0.75,0.06-1.46,0.11-2.12,0.14
			C122.63,126.03,122.1,126.05,121.69,126.05z M132.23,112.43c0.69,0.01,1.29-0.1,1.8-0.33c0.5-0.23,0.9-0.58,1.19-1.05
			c0.29-0.47,0.44-1.03,0.46-1.69c0.02-0.9-0.2-1.61-0.65-2.1c-0.46-0.5-1.23-0.76-2.33-0.78c-0.68-0.01-1.28,0.07-1.82,0.23
			c-0.54,0.17-0.99,0.37-1.35,0.62c-0.37,0.25-0.66,0.49-0.87,0.73c0,0.14-0.01,0.34-0.02,0.61c-0.01,0.26-0.03,0.55-0.03,0.85
			c-0.01,0.3-0.02,0.59-0.04,0.86c-0.01,0.27-0.03,0.48-0.04,0.61c0.2,0.19,0.45,0.4,0.76,0.61c0.31,0.22,0.7,0.4,1.18,0.56
			C130.94,112.34,131.53,112.42,132.23,112.43z"/>
		<path d="M166.49,120.87c-0.14-0.52-0.29-1.09-0.44-1.7c-0.15-0.61-0.3-1.22-0.44-1.85c-0.14-0.62-0.27-1.24-0.38-1.84
			c-0.11-0.6-0.21-1.16-0.3-1.67c-0.09-0.51-0.15-0.96-0.18-1.33c0.31-0.02,0.46-0.03,0.77-0.05c-0.06,0.15-0.16,0.41-0.31,0.75
			c-0.14,0.34-0.32,0.75-0.54,1.23c-0.21,0.47-0.45,0.97-0.7,1.5c-0.25,0.53-0.51,1.06-0.77,1.59c-0.26,0.53-0.52,1.04-0.77,1.51
			c-0.25,0.47-0.47,0.87-0.67,1.21c-2.78-0.3-4.18-0.44-6.97-0.7c-0.05-0.67-0.1-1.57-0.14-2.69c-0.04-1.12-0.07-2.4-0.1-3.84
			c-0.03-1.44-0.04-2.98-0.03-4.61c0.01-1.64,0.03-3.32,0.08-5.05c0.05-1.73,0.12-3.45,0.22-5.16c2.83,0.26,4.24,0.4,7.07,0.69
			c-0.06,0.83-0.14,1.78-0.25,2.87c-0.11,1.09-0.22,2.22-0.35,3.39c-0.13,1.17-0.24,2.32-0.36,3.42c-0.11,1.11-0.22,2.1-0.31,2.97
			c-0.09,0.87-0.16,1.54-0.2,2.01c-0.15,0.14-0.23,0.2-0.38,0.34c0.15-0.3,0.33-0.7,0.54-1.22c0.21-0.51,0.44-1.09,0.68-1.72
			s0.49-1.31,0.74-2.01c0.25-0.7,0.49-1.39,0.7-2.07c0.22-0.68,0.41-1.3,0.57-1.88c0.16-0.58,0.27-1.07,0.32-1.47
			c1.87,0.1,2.8,0.15,4.66,0.27c-0.01,0.23,0,0.65,0.03,1.24c0.03,0.59,0.07,1.3,0.14,2.11c0.06,0.81,0.13,1.65,0.21,2.53
			c0.07,0.88,0.15,1.73,0.24,2.55c0.08,0.82,0.18,1.54,0.28,2.17c0.1,0.62,0.19,1.08,0.29,1.35c-0.35-0.02-0.53-0.03-0.88-0.04
			c0.31-1.05,0.61-2.3,0.91-3.74c0.29-1.44,0.56-2.94,0.81-4.49c0.25-1.55,0.46-3.03,0.64-4.43c0.18-1.4,0.31-2.58,0.39-3.55
			c2.55-0.01,3.83-0.01,6.39,0c-0.18,1.81-0.45,3.64-0.81,5.51c-0.36,1.87-0.76,3.68-1.21,5.42c-0.44,1.74-0.87,3.34-1.29,4.8
			c-0.42,1.45-0.79,2.67-1.11,3.66c-0.32,0.99-0.54,1.65-0.67,1.98C170.17,120.85,168.95,120.85,166.49,120.87z"/>
		<path d="M185.67,122.87c-3.07-0.36-5.31-1.34-6.75-2.98c-1.44-1.63-2.03-3.85-1.74-6.66c0.19-1.91,0.77-3.45,1.73-4.62
			c0.96-1.17,2.22-1.98,3.78-2.44c1.55-0.46,3.3-0.58,5.24-0.35c1.95,0.23,3.53,0.83,4.73,1.78c1.2,0.95,2.03,2.17,2.5,3.63
			c0.47,1.47,0.58,3.11,0.33,4.91c-0.22,1.59-0.75,2.92-1.58,4c-0.84,1.08-1.95,1.86-3.34,2.35
			C189.17,122.96,187.55,123.09,185.67,122.87z M186.07,117.73c0.54,0.06,1.03,0.04,1.49-0.08c0.46-0.12,0.86-0.31,1.21-0.59
			c0.35-0.28,0.64-0.63,0.87-1.07c0.23-0.44,0.38-0.94,0.45-1.51c0.1-0.83,0.06-1.58-0.14-2.25c-0.2-0.67-0.53-1.21-1-1.62
			c-0.47-0.42-1.08-0.67-1.82-0.75c-0.83-0.1-1.52,0.02-2.09,0.36s-0.99,0.79-1.29,1.37c-0.3,0.58-0.48,1.18-0.55,1.81
			c-0.13,1.13,0.05,2.1,0.53,2.92C184.2,117.14,184.98,117.61,186.07,117.73z"/>
		<path d="M205.85,125.64c-3.05-0.48-5.26-1.54-6.63-3.23c-1.38-1.69-1.88-3.93-1.49-6.72c0.27-1.9,0.9-3.42,1.91-4.55
			c1.01-1.13,2.3-1.9,3.87-2.3c1.57-0.4,3.33-0.45,5.26-0.15c1.94,0.3,3.5,0.96,4.66,1.95c1.16,0.99,1.95,2.24,2.36,3.73
			c0.41,1.49,0.46,3.13,0.15,4.91c-0.28,1.58-0.86,2.89-1.74,3.93c-0.88,1.04-2.03,1.78-3.43,2.22
			C209.35,125.86,207.72,125.93,205.85,125.64z M206.44,120.52c0.53,0.08,1.03,0.08,1.49-0.02c0.46-0.1,0.87-0.28,1.24-0.54
			c0.36-0.26,0.67-0.61,0.91-1.04c0.24-0.43,0.41-0.93,0.51-1.49c0.14-0.83,0.12-1.58-0.05-2.25c-0.17-0.67-0.49-1.23-0.94-1.66
			c-0.45-0.43-1.05-0.71-1.79-0.82c-0.82-0.13-1.52-0.04-2.1,0.28s-1.03,0.75-1.34,1.32c-0.32,0.56-0.53,1.16-0.62,1.79
			c-0.17,1.12-0.03,2.1,0.42,2.94C204.6,119.85,205.36,120.35,206.44,120.52z"/>
		<path d="M219.63,127.86c-0.04-0.05,0.01-0.53,0.03-1.01c0.02-0.48,0.04-1.05,0.06-1.72c0.02-0.67,0.05-1.39,0.08-2.17
			c0.03-0.78,0.07-1.55,0.11-2.32c-0.21-0.01-0.53,0.01-0.96,0.04c-0.42,0.03-0.83,0.07-1.21,0.12c-0.08-0.6-0.1-1.35-0.05-2.26
			c0.05-0.91,0.14-1.78,0.27-2.6c0.11-0.01,0.28-0.03,0.5-0.04c0.23-0.01,0.46-0.03,0.71-0.04s0.48-0.02,0.7-0.03
			c0.22,0,0.39-0.01,0.51-0.01c0.01-0.44,0.03-0.88,0.07-1.31s0.09-0.86,0.17-1.27c0.23-1.24,0.71-2.36,1.45-3.35
			c0.74-0.99,1.73-1.72,2.97-2.19c1.24-0.47,2.7-0.55,4.39-0.22c1.02,0.2,1.87,0.46,2.55,0.78c0.68,0.32,1.23,0.66,1.65,1.01
			c0.42,0.36,0.74,0.7,0.97,1.04c0.23,0.34,0.39,0.63,0.5,0.87c-0.38,0.4-0.84,0.86-1.38,1.38c-0.54,0.52-1.05,1.01-1.54,1.47
			c-0.49,0.45-0.84,0.77-1.06,0.96c-0.1-0.22-0.23-0.43-0.38-0.64c-0.15-0.21-0.32-0.41-0.51-0.6c-0.18-0.19-0.38-0.35-0.59-0.48
			c-0.21-0.13-0.44-0.22-0.69-0.27c-0.47-0.09-0.87-0.07-1.2,0.06c-0.33,0.13-0.6,0.35-0.79,0.65c-0.2,0.3-0.34,0.66-0.42,1.08
			c-0.04,0.2-0.07,0.41-0.09,0.63s-0.01,0.46,0.01,0.7c0.36,0.06,0.82,0.15,1.38,0.27c0.55,0.12,1.09,0.24,1.6,0.35
			c0.52,0.12,0.9,0.22,1.13,0.3c-0.04,0.63-0.13,1.37-0.27,2.21c-0.14,0.84-0.28,1.6-0.42,2.28c-0.1-0.02-0.38-0.07-0.84-0.15
			c-0.45-0.08-0.95-0.16-1.49-0.24c-0.54-0.08-0.98-0.13-1.32-0.17c-0.01,0.28-0.01,0.7-0.01,1.27c0,0.57,0,1.19,0,1.87
			c0,0.68,0.01,1.35,0.01,2.01s0.01,1.23,0.01,1.71c0,0.49,0.01,0.81,0.01,0.96c-0.52-0.02-1.17-0.08-1.97-0.19
			c-0.79-0.11-1.6-0.23-2.44-0.37C221.02,128.11,219.76,128.02,219.63,127.86z"/>
		<path d="M239.16,132.88c-1.43-0.32-2.67-0.75-3.73-1.29c-1.06-0.54-1.92-1.08-2.58-1.61c-0.66-0.53-1.1-0.96-1.32-1.27
			c0.1-0.2,0.31-0.48,0.62-0.86c0.31-0.38,0.67-0.79,1.07-1.23c0.4-0.44,0.81-0.85,1.2-1.22c0.4-0.37,0.73-0.64,1.01-0.8
			c0.49,0.54,1,1.07,1.55,1.59c0.55,0.53,1.11,0.98,1.68,1.37c0.58,0.39,1.12,0.64,1.65,0.76c0.35,0.08,0.68,0.11,0.99,0.11
			c0.3-0.01,0.55-0.08,0.75-0.2c0.19-0.12,0.33-0.31,0.38-0.57c0.07-0.29-0.06-0.64-0.37-1.04c-0.31-0.4-0.73-0.82-1.24-1.24
			c-0.52-0.42-1.06-0.82-1.61-1.18c-0.81-0.53-1.55-1.14-2.23-1.77c-0.68-0.63-1.19-1.35-1.54-2.16c-0.35-0.8-0.41-1.72-0.19-2.75
			c0.22-1.05,0.77-1.86,1.63-2.43c0.87-0.57,1.92-0.92,3.14-1.04c1.23-0.12,2.48-0.04,3.76,0.25c1.16,0.26,2.35,0.68,3.56,1.26
			c1.21,0.58,2.17,1.27,2.87,2.06c-0.12,0.19-0.36,0.48-0.71,0.86c-0.36,0.39-0.78,0.79-1.27,1.22c-0.49,0.43-0.99,0.82-1.51,1.15
			c-0.35-0.48-0.84-0.98-1.46-1.48c-0.62-0.5-1.3-0.83-2.03-1c-0.33-0.07-0.66-0.12-0.99-0.13s-0.63,0.03-0.88,0.13
			c-0.25,0.1-0.4,0.28-0.46,0.54c-0.06,0.26,0.01,0.52,0.21,0.78c0.2,0.26,0.51,0.55,0.93,0.86c0.42,0.31,0.95,0.67,1.57,1.09
			c0.55,0.36,1.13,0.79,1.74,1.28c0.61,0.49,1.16,1.04,1.66,1.65c0.49,0.61,0.86,1.27,1.1,1.98c0.24,0.71,0.26,1.47,0.06,2.27
			c-0.31,1.31-0.93,2.31-1.85,3.01c-0.91,0.7-2,1.12-3.25,1.27C241.83,133.26,240.52,133.18,239.16,132.88z"/>
		<path d="M70.47,143.72c-0.85,0.09-1.63,0.06-2.34-0.09c-0.71-0.14-1.31-0.44-1.78-0.88c-0.47-0.44-0.75-1.07-0.85-1.88
			s0.08-1.49,0.51-2.04c0.43-0.55,1.04-0.98,1.81-1.29c0.77-0.31,1.62-0.51,2.55-0.6c0.36-0.04,0.71-0.04,1.04-0.03
			c0.34,0.02,0.64,0.05,0.89,0.1c0.26,0.05,0.45,0.1,0.57,0.15c-0.02-0.16-0.08-0.33-0.16-0.52c-0.08-0.18-0.2-0.34-0.33-0.45
			c-0.23-0.25-0.54-0.44-0.91-0.59c-0.37-0.14-0.85-0.19-1.44-0.13c-0.58,0.06-1.09,0.24-1.51,0.53c-0.42,0.3-0.74,0.62-0.94,0.96
			c-1.08-0.51-1.62-0.76-2.7-1.26c0.27-0.45,0.65-0.86,1.14-1.23c0.5-0.37,1.08-0.68,1.74-0.92c0.66-0.25,1.36-0.41,2.11-0.48
			c1.23-0.12,2.25-0.03,3.06,0.27c0.8,0.3,1.42,0.78,1.85,1.42c0.2,0.31,0.38,0.65,0.53,1.03c0.15,0.38,0.27,0.83,0.35,1.33
			c0.07,0.43,0.13,0.84,0.17,1.21c0.05,0.38,0.1,0.74,0.14,1.07c0.06,0.49,0.15,0.81,0.26,0.95c0.12,0.14,0.27,0.2,0.46,0.19
			c0.18-0.02,0.33-0.08,0.47-0.18c0.13-0.11,0.21-0.24,0.24-0.4c0.5,0.74,0.75,1.11,1.24,1.85c-0.05,0.31-0.24,0.57-0.57,0.81
			c-0.33,0.23-0.76,0.37-1.29,0.42c-0.4,0.04-0.77,0.01-1.13-0.09c-0.36-0.1-0.66-0.24-0.91-0.44c-0.25-0.2-0.41-0.43-0.47-0.7
			c-0.09,0.26-0.29,0.52-0.62,0.79c-0.33,0.27-0.75,0.51-1.28,0.71C71.82,143.51,71.2,143.64,70.47,143.72z M70.92,141.36
			c0.32-0.03,0.65-0.11,0.98-0.24c0.33-0.13,0.63-0.28,0.89-0.45c0.26-0.17,0.46-0.34,0.6-0.5c-0.04-0.2-0.07-0.41-0.1-0.62
			c-0.03-0.21-0.04-0.4-0.05-0.55c-0.16-0.04-0.45-0.08-0.88-0.11c-0.43-0.03-0.88-0.02-1.34,0.03c-0.42,0.04-0.81,0.12-1.16,0.25
			c-0.36,0.12-0.64,0.28-0.85,0.48c-0.21,0.2-0.3,0.44-0.27,0.72c0.03,0.3,0.14,0.53,0.33,0.68c0.19,0.16,0.44,0.26,0.76,0.3
			C70.13,141.4,70.5,141.4,70.92,141.36z"/>
		<path d="M82.67,142.59c-0.21,0.02-0.46,0.03-0.76,0.05c-0.3,0.02-0.61,0.04-0.92,0.06c-0.25,0.01-0.55,0.03-0.88,0.04
			c-0.33,0.01-0.56,0.02-0.69,0.02c0.02-0.55,0.02-1.18,0-1.87c-0.02-0.69-0.04-1.46-0.09-2.3c-0.05-0.84-0.11-1.76-0.18-2.76
			c-0.07-1-0.46-2.96-0.25-3.23c0.05-0.07,0.58-0.11,0.94-0.16c0.36-0.05,0.73-0.09,1.1-0.12c0.26-0.02,0.51-0.03,0.75-0.04
			c0.24-0.01,0.46,0,0.65,0.01c0,0.06,0.01,0.18,0.03,0.36c0.02,0.18,0.03,0.37,0.05,0.59c0.01,0.21,0.02,0.4,0.03,0.57
			c0.16-0.26,0.43-0.54,0.83-0.85c0.39-0.3,0.85-0.57,1.38-0.79c0.53-0.23,1.08-0.36,1.66-0.4c1.07-0.07,1.9,0.07,2.49,0.44
			c0.59,0.36,1.02,0.94,1.27,1.73c0.26,0.79,0.43,1.78,0.5,2.98c0.03,0.42,0.05,0.91,0.06,1.46c0.01,0.56,0.01,1.15,0,1.76
			c-0.01,0.62-0.03,1.21-0.07,1.79c-0.14,0.02-0.35,0.05-0.65,0.07c-0.3,0.03-0.61,0.05-0.94,0.08c-0.35,0.02-0.68,0.04-1,0.05
			c-0.32,0.01-0.55,0.02-0.7,0.01c0.05-0.37,0.1-0.83,0.15-1.39c0.05-0.55,0.08-1.14,0.11-1.77c0.02-0.62,0.01-1.22-0.03-1.8
			c-0.04-0.55-0.12-1.02-0.24-1.42c-0.12-0.4-0.32-0.7-0.59-0.91c-0.27-0.21-0.67-0.29-1.18-0.26c-0.42,0.03-0.81,0.13-1.18,0.29
			c-0.37,0.16-0.7,0.36-1,0.58s-0.7,0.49-0.76,0.64c-0.21,0.56,0.12,1.96,0.14,2.8c0.02,0.83,0.02,1.56,0.02,2.18
			C82.71,141.72,82.7,142.22,82.67,142.59z"/>
		<path d="M100.48,141.35c-0.01-0.09-0.02-0.22-0.04-0.39c-0.01-0.17-0.03-0.34-0.04-0.52c-0.01-0.18-0.02-0.32-0.03-0.44
			c-0.08,0.11-0.2,0.26-0.37,0.42c-0.17,0.16-0.39,0.33-0.65,0.49c-0.27,0.16-0.59,0.3-0.98,0.42c-0.39,0.12-0.84,0.19-1.36,0.21
			c-0.86,0.04-1.62-0.12-2.27-0.48c-0.65-0.36-1.16-0.88-1.53-1.55c-0.37-0.67-0.59-1.43-0.64-2.29c-0.05-0.85,0.07-1.65,0.37-2.4
			c0.3-0.75,0.78-1.38,1.45-1.87c0.67-0.49,1.52-0.76,2.57-0.81c0.52-0.03,1,0.01,1.44,0.1c0.43,0.09,0.8,0.21,1.11,0.37
			c0.31,0.15,0.53,0.31,0.66,0.48c0-0.36,0.01-0.77,0.03-1.24c0.01-0.47,0.03-0.95,0.06-1.44c0.02-0.49,0.04-0.97,0.06-1.41
			c0.02-0.45,0.04-0.83,0.06-1.15c0.02-0.32,0.02-0.61,0.05-0.64c0.1-0.1,0.87-0.01,1.38,0.01c0.51,0.02,0.97,0.08,1.36,0.16
			c-0.06,1.5-0.1,3-0.11,4.49c-0.01,1.49,0,3.02,0.04,4.58c0.04,1.56,0.09,3.19,0.15,4.89c-0.16,0.01-0.42,0.01-0.78,0.02
			c-0.36,0.01-0.73,0.01-1.1,0.02C101,141.36,100.7,141.36,100.48,141.35z M97.73,138.65c0.3-0.01,0.57-0.06,0.83-0.14
			c0.26-0.08,0.49-0.18,0.69-0.3c0.2-0.12,0.39-0.26,0.55-0.4c0.16-0.14,0.29-0.28,0.39-0.42c-0.01-0.13-0.01-0.29-0.02-0.48
			c-0.01-0.19-0.02-0.39-0.03-0.58c-0.01-0.2-0.01-0.38-0.02-0.56c0-0.18-0.01-0.31,0-0.41c-0.15-0.13-0.36-0.25-0.64-0.37
			s-0.58-0.21-0.91-0.28c-0.33-0.07-0.66-0.1-0.98-0.08c-0.68,0.03-1.2,0.25-1.56,0.65s-0.52,0.91-0.49,1.51
			c0.03,0.64,0.24,1.12,0.62,1.44C96.54,138.54,97.06,138.68,97.73,138.65z"/>
		<path d="M125.47,150.95c-0.17-0.51-0.35-1.06-0.53-1.66c-0.18-0.6-0.37-1.2-0.54-1.81c-0.18-0.61-0.34-1.21-0.49-1.8
			c-0.15-0.59-0.28-1.14-0.4-1.64c-0.12-0.5-0.21-0.94-0.26-1.31c0.29-0.04,0.43-0.07,0.72-0.11c-0.04,0.16-0.12,0.42-0.23,0.77
			c-0.11,0.35-0.25,0.78-0.41,1.27s-0.35,1.01-0.55,1.55c-0.2,0.55-0.4,1.1-0.61,1.65c-0.21,0.55-0.41,1.07-0.61,1.56
			c-0.2,0.49-0.38,0.91-0.54,1.26c-2.63-0.09-3.95-0.12-6.58-0.17c-0.1-0.67-0.21-1.56-0.33-2.67c-0.12-1.11-0.24-2.39-0.37-3.82
			c-0.13-1.43-0.26-2.96-0.37-4.6c-0.11-1.63-0.21-3.32-0.3-5.04c-0.08-1.73-0.14-3.45-0.18-5.16c2.68,0.05,4.02,0.08,6.69,0.16
			c0.01,0.83,0,1.79-0.02,2.88c-0.02,1.09-0.05,2.23-0.08,3.41c-0.03,1.18-0.06,2.33-0.09,3.44c-0.03,1.11-0.05,2.11-0.07,2.99
			c-0.02,0.88-0.04,1.55-0.04,2.02c-0.13,0.15-0.2,0.22-0.33,0.37c0.12-0.31,0.26-0.73,0.42-1.25s0.33-1.12,0.51-1.77
			s0.36-1.34,0.55-2.06c0.19-0.72,0.35-1.42,0.51-2.11c0.15-0.69,0.29-1.33,0.4-1.92c0.11-0.59,0.18-1.09,0.2-1.49
			c1.76-0.04,2.64-0.06,4.4-0.09c0.01,0.23,0.05,0.65,0.12,1.24c0.07,0.59,0.16,1.29,0.28,2.09c0.12,0.8,0.24,1.64,0.38,2.51
			c0.13,0.87,0.27,1.71,0.41,2.52c0.14,0.81,0.28,1.52,0.41,2.14c0.14,0.62,0.26,1.06,0.37,1.33c-0.33,0.01-0.5,0.01-0.83,0.02
			c0.22-1.07,0.41-2.34,0.58-3.8c0.17-1.46,0.31-2.98,0.44-4.54c0.12-1.56,0.22-3.05,0.28-4.46c0.07-1.41,0.1-2.6,0.11-3.57
			c2.4-0.21,3.6-0.31,6-0.49c-0.04,1.82-0.16,3.67-0.37,5.56c-0.2,1.89-0.45,3.72-0.75,5.5c-0.29,1.77-0.58,3.4-0.87,4.88
			s-0.55,2.73-0.78,3.74c-0.23,1.01-0.39,1.68-0.49,2.02C128.91,150.64,127.76,150.74,125.47,150.95z"/>
		<path d="M139.93,134.52c-1.1-0.04-2.03-0.36-2.77-0.98c-0.74-0.62-1.11-1.43-1.08-2.43c0.02-0.68,0.21-1.26,0.59-1.73
			c0.38-0.47,0.86-0.83,1.45-1.07c0.59-0.24,1.2-0.35,1.84-0.33c1.04,0.03,1.89,0.38,2.56,1.02c0.67,0.65,0.98,1.46,0.94,2.43
			c-0.04,0.9-0.39,1.65-1.07,2.25C141.7,134.27,140.89,134.55,139.93,134.52z M141.5,151.02c-0.19,0-0.57,0.01-1.16,0.03
			c-0.59,0.02-1.21,0.01-1.87-0.01c-0.46-0.01-0.92-0.04-1.4-0.08c-0.48-0.04-0.95-0.09-1.42-0.16c0.05-0.27,0.13-0.83,0.22-1.68
			c0.1-0.84,0.2-1.84,0.31-2.99c0.11-1.15,0.21-2.34,0.32-3.57c0.1-1.23,0.19-2.38,0.27-3.45c0.07-1.07,0.12-1.93,0.14-2.59
			c0.26-0.01,0.63-0.02,1.12-0.03s1.02-0.01,1.59-0.01s1.12,0,1.63,0.01c0.52,0.01,0.92,0.02,1.21,0.03
			c0.07,0.34,0.1,0.91,0.11,1.69c0.01,0.78,0,1.64-0.04,2.59c-0.04,0.96-0.09,1.98-0.17,3.03c-0.07,1.05-0.16,2.07-0.25,3.03
			s-0.19,1.82-0.3,2.56C141.7,150.16,141.6,150.69,141.5,151.02z"/>
		<path d="M153.71,159.62c-1.69-0.11-3.23-0.35-4.61-0.74c-1.38-0.39-2.47-1.01-3.27-1.85c-0.8-0.84-1.17-2-1.1-3.48
			c0.04-0.89,0.38-1.7,1.03-2.43c0.65-0.72,1.56-1.31,2.73-1.75c1.17-0.44,2.56-0.65,4.13-0.67c0.68-0.01,1.39-0.01,2.13,0.02
			c0.74,0.03,1.66,0.07,2.75,0.15c1.74,0.12,3.14,0.61,4.18,1.46c1.04,0.85,1.49,2.13,1.36,3.82c-0.12,1.48-0.61,2.64-1.47,3.47
			c-0.86,0.83-1.97,1.4-3.34,1.7C156.87,159.62,155.36,159.72,153.71,159.62z M155.2,147.52c-2.33-0.15-4.15-0.56-5.47-1.24
			c-1.32-0.68-2.25-1.51-2.78-2.5c-0.53-0.99-0.77-2-0.72-3.05c0.06-1.39,0.5-2.53,1.33-3.42s1.92-1.54,3.3-1.95
			c1.38-0.4,2.94-0.55,4.68-0.44c2.79,0.18,4.82,0.89,6.08,2.1c1.26,1.22,1.81,2.74,1.67,4.56c-0.11,1.43-0.53,2.6-1.23,3.51
			c-0.71,0.91-1.65,1.57-2.81,1.97C158.07,147.46,156.72,147.61,155.2,147.52z M150.27,150.32c-1.53-0.41-2.58-0.89-3.16-1.43
			c-0.57-0.54-0.84-1.13-0.82-1.77c0.02-0.51,0.16-0.94,0.41-1.3c0.25-0.36,0.54-0.64,0.87-0.84c0.33-0.21,0.63-0.34,0.9-0.4
			c1.46,0.76,2.18,1.15,3.63,1.92c-0.39,0.11-0.69,0.25-0.89,0.44c-0.2,0.19-0.3,0.39-0.31,0.59c-0.01,0.27,0.12,0.52,0.41,0.76
			c0.29,0.24,0.72,0.38,1.3,0.41C151.67,149.35,151.21,149.67,150.27,150.32z M154.06,156.22c0.66,0.04,1.24,0.01,1.76-0.1
			c0.52-0.11,0.93-0.29,1.24-0.55c0.31-0.25,0.48-0.6,0.51-1.03c0.03-0.39-0.07-0.71-0.28-0.95c-0.21-0.24-0.49-0.43-0.84-0.54
			c-0.35-0.12-0.73-0.19-1.13-0.22c-0.25-0.02-0.54-0.04-0.88-0.06c-0.34-0.02-0.67-0.04-0.99-0.06c-0.32-0.02-0.61-0.04-0.86-0.05
			c-0.38-0.02-0.72,0-1.03,0.07c-0.3,0.07-0.55,0.21-0.73,0.42c-0.18,0.21-0.28,0.53-0.31,0.96c-0.02,0.41,0.11,0.77,0.4,1.07
			s0.7,0.54,1.23,0.72C152.69,156.06,153.32,156.18,154.06,156.22z M154.97,143.26c0.59,0.04,1.09-0.01,1.53-0.13
			s0.77-0.35,1.02-0.67c0.25-0.32,0.39-0.74,0.43-1.26c0.03-0.4-0.07-0.76-0.3-1.08c-0.23-0.32-0.54-0.58-0.93-0.77
			c-0.39-0.2-0.81-0.31-1.26-0.34c-0.77-0.05-1.49,0.06-2.16,0.31c-0.67,0.26-1.03,0.78-1.07,1.57c-0.04,0.74,0.2,1.31,0.74,1.7
			C153.49,142.99,154.16,143.21,154.97,143.26z M162.16,139.59c-1.25-1.17-1.88-1.75-3.14-2.91c0.16-0.4,0.45-0.83,0.87-1.28
			c0.42-0.45,0.9-0.86,1.44-1.23c0.54-0.37,1.06-0.64,1.57-0.8c0.16,0.26,0.38,0.62,0.67,1.07c0.28,0.46,0.58,0.92,0.89,1.4
			c0.31,0.47,0.57,0.86,0.79,1.17c-0.29,0.1-0.59,0.24-0.9,0.4c-0.31,0.16-0.61,0.35-0.9,0.57c-0.29,0.22-0.54,0.46-0.77,0.73
			C162.44,138.97,162.27,139.27,162.16,139.59z"/>
		<path d="M173.47,161.24c-1.69-0.17-3.21-0.48-4.58-0.93c-1.37-0.45-2.43-1.11-3.19-1.98c-0.76-0.88-1.09-2.05-0.96-3.52
			c0.07-0.89,0.45-1.68,1.13-2.38c0.68-0.7,1.61-1.25,2.8-1.64c1.19-0.39,2.58-0.55,4.15-0.5c0.68,0.02,1.39,0.05,2.13,0.1
			c0.74,0.05,1.65,0.14,2.75,0.26c1.74,0.19,3.11,0.73,4.12,1.63c1.01,0.89,1.41,2.19,1.2,3.87c-0.18,1.48-0.72,2.61-1.61,3.41
			s-2.03,1.32-3.4,1.57C176.62,161.37,175.11,161.41,173.47,161.24z M175.44,149.21c-2.32-0.24-4.12-0.72-5.42-1.45
			c-1.29-0.73-2.19-1.6-2.68-2.61c-0.49-1.01-0.69-2.03-0.6-3.08c0.12-1.39,0.6-2.51,1.46-3.37s1.98-1.46,3.37-1.81
			c1.39-0.35,2.96-0.44,4.7-0.26c2.78,0.29,4.78,1.08,5.99,2.34c1.21,1.27,1.7,2.81,1.48,4.62c-0.17,1.42-0.63,2.57-1.37,3.45
			c-0.75,0.88-1.71,1.5-2.89,1.86C178.31,149.27,176.96,149.37,175.44,149.21z M170.4,151.82c-1.51-0.47-2.55-0.99-3.1-1.55
			c-0.55-0.56-0.8-1.16-0.74-1.8c0.04-0.51,0.2-0.93,0.46-1.28c0.26-0.35,0.56-0.61,0.9-0.81c0.34-0.19,0.64-0.32,0.91-0.37
			c1.42,0.82,2.13,1.23,3.55,2.06c-0.4,0.09-0.7,0.23-0.9,0.41c-0.21,0.18-0.32,0.37-0.34,0.58c-0.03,0.26,0.1,0.52,0.38,0.77
			s0.71,0.4,1.29,0.46C171.84,150.9,171.36,151.21,170.4,151.82z M173.95,157.87c0.65,0.07,1.24,0.06,1.76-0.03
			c0.52-0.09,0.94-0.26,1.26-0.5c0.32-0.24,0.51-0.58,0.55-1.01c0.04-0.39-0.04-0.71-0.24-0.96c-0.2-0.25-0.48-0.44-0.82-0.58
			s-0.72-0.22-1.12-0.26c-0.25-0.03-0.54-0.06-0.88-0.09c-0.34-0.03-0.67-0.07-0.99-0.1c-0.32-0.03-0.61-0.06-0.86-0.09
			c-0.38-0.04-0.72-0.03-1.03,0.03c-0.31,0.06-0.56,0.19-0.74,0.39c-0.19,0.21-0.3,0.52-0.34,0.94c-0.04,0.41,0.08,0.77,0.35,1.08
			s0.68,0.56,1.21,0.77C172.59,157.65,173.21,157.79,173.95,157.87z M175.38,144.95c0.58,0.06,1.09,0.04,1.53-0.07
			c0.44-0.11,0.79-0.32,1.05-0.63c0.26-0.31,0.42-0.72,0.48-1.24c0.04-0.4-0.04-0.77-0.26-1.09c-0.22-0.33-0.52-0.6-0.9-0.81
			c-0.38-0.21-0.8-0.34-1.24-0.39c-0.77-0.08-1.49,0-2.17,0.23c-0.68,0.23-1.06,0.74-1.14,1.52c-0.07,0.74,0.15,1.32,0.67,1.73
			C173.92,144.62,174.58,144.87,175.38,144.95z M182.72,141.57c-1.2-1.22-1.81-1.82-3.02-3.03c0.18-0.4,0.49-0.81,0.92-1.24
			c0.43-0.43,0.93-0.82,1.49-1.17c0.56-0.35,1.09-0.59,1.6-0.74c0.15,0.26,0.36,0.63,0.62,1.1c0.26,0.47,0.54,0.95,0.83,1.43
			c0.29,0.48,0.54,0.88,0.74,1.2c-0.29,0.09-0.6,0.21-0.92,0.36c-0.32,0.15-0.63,0.33-0.92,0.53c-0.3,0.21-0.56,0.44-0.8,0.7
			C183.02,140.97,182.84,141.26,182.72,141.57z"/>
		<path d="M195.04,155.24c-0.37,0.25-1.02,0.45-1.95,0.61c-0.93,0.16-1.92,0.17-2.97,0.03c-1.35-0.18-2.35-0.61-2.98-1.3
			c-0.64-0.69-1.02-1.59-1.14-2.71c-0.12-1.12-0.09-2.41,0.1-3.89c0.15-1.22,0.31-2.42,0.49-3.61c0.17-1.18,0.35-2.33,0.53-3.46
			c0.18-1.12,0.36-2.21,0.55-3.25c0.18-1.04,0.36-2.03,0.54-2.97c0.18-0.94,0.31-2.48,0.5-2.63c0.25-0.19,1.75,0.13,2.51,0.23
			c0.49,0.06,0.97,0.14,1.45,0.22c0.48,0.09,1,0.19,1.57,0.33c-0.19,0.97-0.4,2.02-0.63,3.14c-0.23,1.12-0.45,2.25-0.68,3.4
			c-0.23,1.14-0.44,2.24-0.64,3.29c-0.2,1.05-0.37,1.99-0.52,2.81c-0.15,0.82-0.25,1.48-0.31,1.95c-0.09,0.63-0.14,1.22-0.15,1.76
			c-0.01,0.55,0.05,0.99,0.2,1.34s0.41,0.55,0.79,0.6c0.36,0.05,0.67,0.02,0.91-0.09c0.25-0.11,0.46-0.27,0.64-0.48
			c0.06,0.16,0.15,0.46,0.27,0.91c0.12,0.45,0.25,0.94,0.38,1.48c0.13,0.54,0.25,1.03,0.35,1.46S195.02,155.12,195.04,155.24z"/>
		<path d="M212.22,156.03c-0.38,0.32-0.84,0.6-1.37,0.86c-0.53,0.25-1.13,0.45-1.8,0.58c-0.67,0.14-1.42,0.21-2.25,0.22
			c-0.83,0.01-1.74-0.06-2.73-0.23c-1.63-0.27-3.03-0.79-4.22-1.59c-1.19-0.8-2.06-1.83-2.6-3.12c-0.55-1.28-0.7-2.81-0.44-4.57
			c0.27-1.81,0.87-3.33,1.82-4.56c0.95-1.23,2.18-2.12,3.68-2.64c1.5-0.53,3.17-0.64,5.02-0.34c2.34,0.38,4.09,1.3,5.23,2.72
			c1.14,1.42,1.55,3.23,1.18,5.34c-0.07,0.41-0.15,0.77-0.24,1.07c-0.08,0.31-0.2,0.64-0.34,0.99c-0.16-0.04-0.53-0.12-1.08-0.23
			c-0.56-0.11-1.2-0.23-1.9-0.36c-0.7-0.13-1.35-0.25-1.95-0.36c-0.59-0.11-1.01-0.19-1.25-0.23c-0.89-0.15-1.74-0.25-2.57-0.31
			c-0.82-0.06-1.49-0.08-2.01-0.08c-0.03,0.16-0.04,0.32-0.04,0.48s0.01,0.31,0.04,0.46c0.07,0.39,0.24,0.73,0.51,1.03
			c0.26,0.3,0.6,0.55,1.02,0.75c0.41,0.2,0.87,0.34,1.36,0.42c0.4,0.07,0.79,0.09,1.16,0.07c0.37-0.02,0.73-0.08,1.08-0.18
			c0.35-0.1,0.7-0.23,1.02-0.39c0.33-0.16,0.67-0.34,1.01-0.56c0.06,0.06,0.21,0.26,0.45,0.6c0.24,0.33,0.52,0.74,0.82,1.23
			c0.3,0.48,0.58,0.98,0.84,1.5C211.94,155.13,212.12,155.6,212.22,156.03z M203.15,146.04c0.42-0.01,0.94,0.01,1.56,0.05
			c0.62,0.05,1.34,0.14,2.15,0.27c0.45,0.07,0.86,0.15,1.23,0.23c0.37,0.08,0.63,0.14,0.8,0.17c0.03-0.18,0.03-0.39,0-0.61
			c-0.04-0.32-0.15-0.64-0.34-0.95c-0.19-0.3-0.45-0.56-0.78-0.78c-0.33-0.22-0.73-0.37-1.21-0.45c-0.63-0.1-1.19-0.06-1.67,0.14
			c-0.48,0.2-0.87,0.47-1.16,0.82C203.44,145.29,203.24,145.66,203.15,146.04z"/>
		<path d="M221.42,161.69c-1.35-0.27-2.52-0.65-3.52-1.16c-1-0.51-1.82-1.01-2.45-1.52c-0.63-0.51-1.05-0.92-1.26-1.23
			c0.09-0.2,0.28-0.49,0.57-0.88c0.29-0.39,0.62-0.81,1-1.27c0.37-0.45,0.75-0.87,1.12-1.26c0.37-0.38,0.68-0.66,0.94-0.83
			c0.46,0.52,0.96,1.03,1.47,1.54c0.52,0.51,1.05,0.94,1.6,1.31c0.55,0.37,1.07,0.6,1.56,0.7c0.33,0.07,0.64,0.09,0.93,0.07
			c0.28-0.02,0.52-0.09,0.7-0.22c0.18-0.13,0.3-0.33,0.36-0.59c0.06-0.29-0.06-0.63-0.36-1.02c-0.3-0.39-0.69-0.79-1.18-1.2
			c-0.49-0.41-1.01-0.78-1.53-1.12c-0.77-0.5-1.48-1.08-2.12-1.69c-0.65-0.61-1.14-1.31-1.47-2.1c-0.33-0.79-0.4-1.7-0.21-2.74
			c0.2-1.05,0.7-1.88,1.52-2.48c0.81-0.6,1.8-0.98,2.95-1.14c1.16-0.16,2.34-0.12,3.55,0.12c1.1,0.22,2.22,0.6,3.37,1.14
			c1.15,0.54,2.06,1.2,2.72,1.96c-0.11,0.19-0.33,0.49-0.67,0.88c-0.33,0.4-0.73,0.82-1.19,1.26c-0.46,0.45-0.93,0.85-1.42,1.2
			c-0.34-0.47-0.8-0.95-1.39-1.43c-0.59-0.48-1.23-0.79-1.93-0.93c-0.31-0.06-0.62-0.09-0.93-0.1c-0.31,0-0.59,0.05-0.82,0.16
			c-0.23,0.11-0.38,0.3-0.43,0.56c-0.05,0.26,0.02,0.52,0.2,0.77c0.19,0.25,0.49,0.53,0.89,0.83c0.4,0.3,0.9,0.64,1.49,1.03
			c0.52,0.34,1.07,0.75,1.65,1.22c0.58,0.47,1.11,1,1.58,1.59c0.47,0.59,0.82,1.24,1.05,1.94c0.23,0.7,0.25,1.46,0.08,2.27
			c-0.29,1.32-0.86,2.34-1.72,3.06c-0.86,0.72-1.87,1.18-3.05,1.38C223.93,161.98,222.7,161.95,221.42,161.69z"/>
	</g>
</g>
</svg>
